<?xml version="1.0" encoding="UTF-8" standalone="no"?>
<!DOCTYPE svg PUBLIC "-//W3C//DTD SVG 1.1//EN"
 "http://www.w3.org/Graphics/SVG/1.1/DTD/svg11.dtd">
<!-- Generated by graphviz version 7.0.5 (0)
 -->
<!-- Title: G Pages: 1 -->
<svg width="360pt" height="71pt"
 viewBox="0.00 0.00 360.00 70.94" xmlns="http://www.w3.org/2000/svg" xmlns:xlink="http://www.w3.org/1999/xlink">
<g id="graph0" class="graph" transform="scale(0.272833 0.272833) rotate(0) translate(4 256)">
<title>G</title>
<!-- Maternal_employment -->
<g id="node1" class="node">
<title>Maternal_employment</title>
<g id="a_node1"><a xlink:title="(4) Maternal_employment">
<ellipse fill="#404040" stroke="black" cx="271.69" cy="-162" rx="92.08" ry="18"/>
<text text-anchor="middle" x="271.69" y="-158.3" font-family="Times New Roman,serif" font-size="14.00" fill="white">Maternal_employment</text>
</a>
</g>
</g>
<!-- Exclusive_breastfeeding -->
<g id="node13" class="node">
<title>Exclusive_breastfeeding</title>
<g id="a_node13"><a xlink:title="(2) Exclusive_breastfeeding">
<ellipse fill="#404040" stroke="black" cx="463.69" cy="-90" rx="96.68" ry="18"/>
<text text-anchor="middle" x="463.69" y="-86.3" font-family="Times New Roman,serif" font-size="14.00" fill="white">Exclusive_breastfeeding</text>
</a>
</g>
</g>
<!-- Maternal_employment&#45;&gt;Exclusive_breastfeeding -->
<g id="edge12" class="edge">
<title>Maternal_employment&#45;&gt;Exclusive_breastfeeding</title>
<g id="a_edge12"><a xlink:title="4 → 2">
<path fill="none" stroke="#4a4a4a" d="M313.83,-145.64C342.27,-135.27 380.03,-121.5 410.53,-110.38"/>
<polygon fill="#4a4a4a" stroke="#4a4a4a" points="411.38,-113.8 419.57,-107.09 408.98,-107.22 411.38,-113.8"/>
</a>
</g>
</g>
<!-- HH_crowding -->
<g id="node2" class="node">
<title>HH_crowding</title>
<g id="a_node2"><a xlink:title="(1) HH_crowding">
<ellipse fill="#404040" stroke="black" cx="63.69" cy="-234" rx="61.19" ry="18"/>
<text text-anchor="middle" x="63.69" y="-230.3" font-family="Times New Roman,serif" font-size="14.00" fill="white">HH_crowding</text>
</a>
</g>
</g>
<!-- Food_diversity -->
<g id="node9" class="node">
<title>Food_diversity</title>
<g id="a_node9"><a xlink:title="(16) Food_diversity">
<ellipse fill="#404040" stroke="black" cx="63.69" cy="-162" rx="63.89" ry="18"/>
<text text-anchor="middle" x="63.69" y="-158.3" font-family="Times New Roman,serif" font-size="14.00" fill="white">Food_diversity</text>
</a>
</g>
</g>
<!-- HH_crowding&#45;&gt;Food_diversity -->
<g id="edge14" class="edge">
<title>HH_crowding&#45;&gt;Food_diversity</title>
<g id="a_edge14"><a xlink:title="1 → 16">
<path fill="none" stroke="#4a4a4a" d="M63.69,-215.7C63.69,-208.41 63.69,-199.73 63.69,-191.54"/>
<polygon fill="#4a4a4a" stroke="#4a4a4a" points="67.19,-191.62 63.69,-181.62 60.19,-191.62 67.19,-191.62"/>
</a>
</g>
</g>
<!-- Animal_ownership -->
<g id="node3" class="node">
<title>Animal_ownership</title>
<g id="a_node3"><a xlink:title="(14) Animal_ownership">
<ellipse fill="#404040" stroke="black" cx="136.69" cy="-90" rx="78.79" ry="18"/>
<text text-anchor="middle" x="136.69" y="-86.3" font-family="Times New Roman,serif" font-size="14.00" fill="white">Animal_ownership</text>
</a>
</g>
</g>
<!-- Stunting -->
<g id="node6" class="node">
<title>Stunting</title>
<g id="a_node6"><a xlink:title="(8) Stunting">
<ellipse fill="#404040" stroke="black" cx="705.69" cy="-18" rx="40.09" ry="18"/>
<text text-anchor="middle" x="705.69" y="-14.3" font-family="Times New Roman,serif" font-size="14.00" fill="white">Stunting</text>
</a>
</g>
</g>
<!-- Animal_ownership&#45;&gt;Stunting -->
<g id="edge3" class="edge">
<title>Animal_ownership&#45;&gt;Stunting</title>
<g id="a_edge3"><a xlink:title="14 → 8">
<path fill="none" stroke="#4a4a4a" d="M193.67,-77.16C203.65,-75.29 213.96,-73.48 223.69,-72 380.2,-48.15 566.87,-30.74 654.93,-23.18"/>
<polygon fill="#4a4a4a" stroke="#4a4a4a" points="655.01,-26.68 664.68,-22.35 654.42,-19.71 655.01,-26.68"/>
</a>
</g>
</g>
<!-- ANC -->
<g id="node4" class="node">
<title>ANC</title>
<g id="a_node4"><a xlink:title="(6) ANC">
<ellipse fill="#404040" stroke="black" cx="868.69" cy="-162" rx="29.5" ry="18"/>
<text text-anchor="middle" x="868.69" y="-158.3" font-family="Times New Roman,serif" font-size="14.00" fill="white">ANC</text>
</a>
</g>
</g>
<!-- ANC&#45;&gt;Exclusive_breastfeeding -->
<g id="edge2" class="edge">
<title>ANC&#45;&gt;Exclusive_breastfeeding</title>
<g id="a_edge2"><a xlink:title="6 → 2">
<path fill="none" stroke="#4a4a4a" d="M840.54,-156.13C779.92,-145.66 635.18,-120.64 543.75,-104.84"/>
<polygon fill="#4a4a4a" stroke="#4a4a4a" points="544.54,-101.42 534.09,-103.17 543.35,-108.32 544.54,-101.42"/>
</a>
</g>
</g>
<!-- Preterm_birth -->
<g id="node17" class="node">
<title>Preterm_birth</title>
<g id="a_node17"><a xlink:title="(5) Preterm_birth">
<ellipse fill="#404040" stroke="black" cx="1251.69" cy="-90" rx="59.59" ry="18"/>
<text text-anchor="middle" x="1251.69" y="-86.3" font-family="Times New Roman,serif" font-size="14.00" fill="white">Preterm_birth</text>
</a>
</g>
</g>
<!-- ANC&#45;&gt;Preterm_birth -->
<g id="edge5" class="edge">
<title>ANC&#45;&gt;Preterm_birth</title>
<g id="a_edge5"><a xlink:title="6 → 5">
<path fill="none" stroke="#4a4a4a" d="M897.5,-156.92C953.09,-148.89 1078.92,-129.88 1183.69,-108 1187.99,-107.1 1192.43,-106.12 1196.89,-105.09"/>
<polygon fill="#4a4a4a" stroke="#4a4a4a" points="1197.52,-108.54 1206.44,-102.83 1195.9,-101.73 1197.52,-108.54"/>
</a>
</g>
</g>
<!-- Maternal_education -->
<g id="node5" class="node">
<title>Maternal_education</title>
<g id="a_node5"><a xlink:title="(3) Maternal_education">
<ellipse fill="#404040" stroke="black" cx="463.69" cy="-162" rx="81.49" ry="18"/>
<text text-anchor="middle" x="463.69" y="-158.3" font-family="Times New Roman,serif" font-size="14.00" fill="white">Maternal_education</text>
</a>
</g>
</g>
<!-- Maternal_education&#45;&gt;Exclusive_breastfeeding -->
<g id="edge11" class="edge">
<title>Maternal_education&#45;&gt;Exclusive_breastfeeding</title>
<g id="a_edge11"><a xlink:title="3 → 2">
<path fill="none" stroke="#4a4a4a" d="M463.69,-143.7C463.69,-136.41 463.69,-127.73 463.69,-119.54"/>
<polygon fill="#4a4a4a" stroke="#4a4a4a" points="467.19,-119.62 463.69,-109.62 460.19,-119.62 467.19,-119.62"/>
</a>
</g>
</g>
<!-- Toilet_access -->
<g id="node7" class="node">
<title>Toilet_access</title>
<g id="a_node7"><a xlink:title="(13) Toilet_access">
<ellipse fill="#404040" stroke="black" cx="290.69" cy="-90" rx="57.69" ry="18"/>
<text text-anchor="middle" x="290.69" y="-86.3" font-family="Times New Roman,serif" font-size="14.00" fill="white">Toilet_access</text>
</a>
</g>
</g>
<!-- Toilet_access&#45;&gt;Stunting -->
<g id="edge1" class="edge">
<title>Toilet_access&#45;&gt;Stunting</title>
<g id="a_edge1"><a xlink:title="13 → 8">
<path fill="none" stroke="#4a4a4a" d="M333.44,-77.49C341.47,-75.52 349.81,-73.6 357.69,-72 463.15,-50.64 588.16,-33.59 655.94,-25.03"/>
<polygon fill="#4a4a4a" stroke="#4a4a4a" points="656.13,-28.53 665.61,-23.82 655.26,-21.59 656.13,-28.53"/>
</a>
</g>
</g>
<!-- Maternal_age -->
<g id="node8" class="node">
<title>Maternal_age</title>
<g id="a_node8"><a xlink:title="(7) Maternal_age">
<ellipse fill="#404040" stroke="black" cx="1251.69" cy="-162" rx="59.59" ry="18"/>
<text text-anchor="middle" x="1251.69" y="-158.3" font-family="Times New Roman,serif" font-size="14.00" fill="white">Maternal_age</text>
</a>
</g>
</g>
<!-- Maternal_age&#45;&gt;Preterm_birth -->
<g id="edge7" class="edge">
<title>Maternal_age&#45;&gt;Preterm_birth</title>
<g id="a_edge7"><a xlink:title="7 → 5">
<path fill="none" stroke="#4a4a4a" d="M1251.69,-143.7C1251.69,-136.41 1251.69,-127.73 1251.69,-119.54"/>
<polygon fill="#4a4a4a" stroke="#4a4a4a" points="1255.19,-119.62 1251.69,-109.62 1248.19,-119.62 1255.19,-119.62"/>
</a>
</g>
</g>
<!-- Food_diversity&#45;&gt;Stunting -->
<g id="edge15" class="edge">
<title>Food_diversity&#45;&gt;Stunting</title>
<g id="a_edge15"><a xlink:title="16 → 8">
<path fill="none" stroke="#4a4a4a" d="M53.45,-143.89C43.03,-124.02 30.74,-91.46 48.69,-72 89.49,-27.78 506.65,-20.45 654.27,-19.24"/>
<polygon fill="#4a4a4a" stroke="#4a4a4a" points="654.17,-22.74 664.14,-19.16 654.12,-15.74 654.17,-22.74"/>
</a>
</g>
</g>
<!-- Cooking_fuel -->
<g id="node10" class="node">
<title>Cooking_fuel</title>
<g id="a_node10"><a xlink:title="(10) Cooking_fuel">
<ellipse fill="#404040" stroke="black" cx="637.69" cy="-90" rx="59.29" ry="18"/>
<text text-anchor="middle" x="637.69" y="-86.3" font-family="Times New Roman,serif" font-size="14.00" fill="white">Cooking_fuel</text>
</a>
</g>
</g>
<!-- Cooking_fuel&#45;&gt;Stunting -->
<g id="edge8" class="edge">
<title>Cooking_fuel&#45;&gt;Stunting</title>
<g id="a_edge8"><a xlink:title="10 → 8">
<path fill="none" stroke="#4a4a4a" d="M653.81,-72.41C662.31,-63.66 672.91,-52.75 682.3,-43.08"/>
<polygon fill="#4a4a4a" stroke="#4a4a4a" points="684.65,-45.69 689.11,-36.07 679.63,-40.81 684.65,-45.69"/>
</a>
</g>
</g>
<!-- Water_source -->
<g id="node11" class="node">
<title>Water_source</title>
<g id="a_node11"><a xlink:title="(12) Water_source">
<ellipse fill="#404040" stroke="black" cx="773.69" cy="-90" rx="59.29" ry="18"/>
<text text-anchor="middle" x="773.69" y="-86.3" font-family="Times New Roman,serif" font-size="14.00" fill="white">Water_source</text>
</a>
</g>
</g>
<!-- Water_source&#45;&gt;Stunting -->
<g id="edge17" class="edge">
<title>Water_source&#45;&gt;Stunting</title>
<g id="a_edge17"><a xlink:title="12 → 8">
<path fill="none" stroke="#4a4a4a" d="M757.58,-72.41C749.07,-63.66 738.48,-52.75 729.09,-43.08"/>
<polygon fill="#4a4a4a" stroke="#4a4a4a" points="731.76,-40.81 722.28,-36.07 726.74,-45.69 731.76,-40.81"/>
</a>
</g>
</g>
<!-- Deworming -->
<g id="node12" class="node">
<title>Deworming</title>
<g id="a_node12"><a xlink:title="(15) Deworming">
<ellipse fill="#404040" stroke="black" cx="903.69" cy="-90" rx="53.09" ry="18"/>
<text text-anchor="middle" x="903.69" y="-86.3" font-family="Times New Roman,serif" font-size="14.00" fill="white">Deworming</text>
</a>
</g>
</g>
<!-- Deworming&#45;&gt;Stunting -->
<g id="edge4" class="edge">
<title>Deworming&#45;&gt;Stunting</title>
<g id="a_edge4"><a xlink:title="15 → 8">
<path fill="none" stroke="#4a4a4a" d="M867.84,-76.32C833.8,-64.29 782.68,-46.22 746.96,-33.59"/>
<polygon fill="#4a4a4a" stroke="#4a4a4a" points="748.43,-30.4 737.84,-30.36 746.1,-37 748.43,-30.4"/>
</a>
</g>
</g>
<!-- Exclusive_breastfeeding&#45;&gt;Stunting -->
<g id="edge18" class="edge">
<title>Exclusive_breastfeeding&#45;&gt;Stunting</title>
<g id="a_edge18"><a xlink:title="2 → 8">
<path fill="none" stroke="#4a4a4a" d="M514.43,-74.33C557.97,-61.73 620.1,-43.76 661.61,-31.75"/>
<polygon fill="#4a4a4a" stroke="#4a4a4a" points="662.39,-35.17 671.02,-29.03 660.44,-28.45 662.39,-35.17"/>
</a>
</g>
</g>
<!-- Sex -->
<g id="node14" class="node">
<title>Sex</title>
<g id="a_node14"><a xlink:title="(9) Sex">
<ellipse fill="#404040" stroke="black" cx="1001.69" cy="-90" rx="27" ry="18"/>
<text text-anchor="middle" x="1001.69" y="-86.3" font-family="Times New Roman,serif" font-size="14.00" fill="white">Sex</text>
</a>
</g>
</g>
<!-- Sex&#45;&gt;Stunting -->
<g id="edge13" class="edge">
<title>Sex&#45;&gt;Stunting</title>
<g id="a_edge13"><a xlink:title="9 → 8">
<path fill="none" stroke="#4a4a4a" d="M980.72,-78.06C975.88,-75.83 970.68,-73.66 965.69,-72 894.22,-48.23 807.99,-33.2 755,-25.45"/>
<polygon fill="#4a4a4a" stroke="#4a4a4a" points="755.79,-22.02 745.39,-24.07 754.8,-28.95 755.79,-22.02"/>
</a>
</g>
</g>
<!-- Socio_economic_status -->
<g id="node15" class="node">
<title>Socio_economic_status</title>
<g id="a_node15"><a xlink:title="(0) Socio_economic_status">
<ellipse fill="#404040" stroke="black" cx="332.69" cy="-234" rx="94.48" ry="18"/>
<text text-anchor="middle" x="332.69" y="-230.3" font-family="Times New Roman,serif" font-size="14.00" fill="white">Socio_economic_status</text>
</a>
</g>
</g>
<!-- Socio_economic_status&#45;&gt;Maternal_education -->
<g id="edge10" class="edge">
<title>Socio_economic_status&#45;&gt;Maternal_education</title>
<g id="a_edge10"><a xlink:title="0 → 3">
<path fill="none" stroke="#4a4a4a" d="M363.41,-216.59C381.36,-207 404.22,-194.78 423.57,-184.44"/>
<polygon fill="#4a4a4a" stroke="#4a4a4a" points="425.12,-187.58 432.29,-179.78 421.82,-181.41 425.12,-187.58"/>
</a>
</g>
</g>
<!-- Socio_economic_status&#45;&gt;Food_diversity -->
<g id="edge9" class="edge">
<title>Socio_economic_status&#45;&gt;Food_diversity</title>
<g id="a_edge9"><a xlink:title="0 → 16">
<path fill="none" stroke="#4a4a4a" d="M278.58,-218.92C232.66,-206.97 166.99,-189.88 120.35,-177.74"/>
<polygon fill="#4a4a4a" stroke="#4a4a4a" points="121.25,-174.36 110.69,-175.23 119.49,-181.14 121.25,-174.36"/>
</a>
</g>
</g>
<!-- Pollution_birth -->
<g id="node16" class="node">
<title>Pollution_birth</title>
<g id="a_node16"><a xlink:title="(11) Pollution_birth">
<ellipse fill="#404040" stroke="black" cx="1110.69" cy="-90" rx="63.89" ry="18"/>
<text text-anchor="middle" x="1110.69" y="-86.3" font-family="Times New Roman,serif" font-size="14.00" fill="white">Pollution_birth</text>
</a>
</g>
</g>
<!-- Pollution_birth&#45;&gt;Stunting -->
<g id="edge16" class="edge">
<title>Pollution_birth&#45;&gt;Stunting</title>
<g id="a_edge16"><a xlink:title="11 → 8">
<path fill="none" stroke="#4a4a4a" d="M1063.68,-77.54C1055.06,-75.58 1046.12,-73.65 1037.69,-72 937.73,-52.41 819.77,-34.9 754.8,-25.73"/>
<polygon fill="#4a4a4a" stroke="#4a4a4a" points="755.58,-22.31 745.19,-24.39 754.6,-29.24 755.58,-22.31"/>
</a>
</g>
</g>
<!-- Preterm_birth&#45;&gt;Stunting -->
<g id="edge6" class="edge">
<title>Preterm_birth&#45;&gt;Stunting</title>
<g id="a_edge6"><a xlink:title="5 → 8">
<path fill="none" stroke="#4a4a4a" d="M1208.35,-77.24C1200.2,-75.29 1191.72,-73.44 1183.69,-72 1029.5,-44.31 844.57,-28.74 756.78,-22.4"/>
<polygon fill="#4a4a4a" stroke="#4a4a4a" points="757.03,-18.91 746.81,-21.69 756.54,-25.89 757.03,-18.91"/>
</a>
</g>
</g>
</g>
</svg>
